<svg width="28" height="30" viewBox="0 0 28 30" fill="none" xmlns="http://www.w3.org/2000/svg">
<path d="M27.4213 19.5116C27.055 18.1132 26.0561 16.5816 24.6243 15.0166C26.0561 13.4517 27.055 11.8868 27.4213 10.5216C27.7209 9.38952 27.6211 8.35733 27.1549 7.52493C25.9562 5.46055 22.893 5.16089 19.3302 5.92668C18.1982 2.46391 16.4335 0 14.0028 0C11.772 0 9.87408 2.26418 8.67542 5.92675C8.24256 5.82688 7.84303 5.76028 7.41017 5.69368C4.14713 5.22755 1.78308 5.86015 0.850823 7.525C0.384692 8.35739 0.284762 9.38958 0.584426 10.5216C0.950689 11.9201 1.94955 13.4517 3.38133 15.0167C1.94961 16.5816 0.950689 18.1465 0.584426 19.5117C0.284762 20.6437 0.384629 21.6759 0.850823 22.5083C1.61662 23.8069 3.21487 24.4728 5.44571 24.4728C6.04504 24.4728 6.71097 24.4062 7.41017 24.3063C7.8097 24.2397 8.24256 24.1731 8.67542 24.0733C9.84081 27.7358 11.772 30 14.0028 30C16.4335 30 18.1982 27.5361 19.2969 24.0733C20.4623 24.3396 21.5611 24.4728 22.5932 24.4728C24.6909 24.4728 26.3224 23.8735 27.1549 22.475C27.6211 21.6759 27.7209 20.6437 27.4213 19.5116ZM22.5933 7.52493C24.025 7.52493 25.0572 7.8912 25.4568 8.55713C25.6566 8.92339 25.6899 9.42285 25.5234 10.0222C25.257 10.9878 24.4912 12.253 23.2592 13.6515C22.4268 12.8857 21.4612 12.1198 20.4291 11.3873C20.2959 10.1886 20.0961 8.98999 19.863 7.8912C20.8619 7.62487 21.7942 7.52493 22.5933 7.52493ZM16.3003 18.9456C15.5345 19.3784 14.7354 19.778 14.0028 20.1442C13.2236 19.771 12.4573 19.3712 11.7054 18.9456C10.9063 18.5127 10.2071 18.0466 9.50782 17.5804C9.44122 16.7481 9.40795 15.8823 9.40795 15.0166C9.40795 14.1509 9.44122 13.2852 9.50782 12.4528C10.207 11.9866 10.9063 11.5538 11.7054 11.0876C12.4573 10.662 13.2236 10.2622 14.0028 9.88898C14.7821 10.2622 15.5484 10.662 16.3003 11.0876C17.0994 11.5205 17.7986 11.9866 18.4979 12.4528C18.5645 13.2852 18.5977 14.1509 18.5977 15.0166C18.5977 15.8823 18.5645 16.748 18.4979 17.5804C17.8319 18.0466 17.0994 18.5128 16.3003 18.9456ZM18.1982 20.1443C18.0983 20.677 17.9984 21.1765 17.8985 21.6759C17.3991 21.5095 16.8997 21.343 16.4002 21.1432L17.2992 20.6437C17.5989 20.5106 17.8985 20.3108 18.1982 20.1443ZM11.6055 21.1765C11.1061 21.3763 10.6067 21.5427 10.1072 21.6759C10.0073 21.1765 9.90741 20.6771 9.80754 20.1443C10.1072 20.3108 10.4069 20.5106 10.7065 20.677L11.6055 21.1765ZM7.41017 16.0488C6.9773 15.6825 6.57777 15.3496 6.17818 15.0166C6.54444 14.6837 6.9773 14.3174 7.41017 13.9844V16.0488ZM9.80754 9.88898C9.90741 9.35625 10.0073 8.85679 10.1072 8.35733C10.6067 8.49053 11.0728 8.69032 11.6055 8.85679L10.7065 9.35625C10.4069 9.52272 10.1072 9.72252 9.80754 9.88898ZM16.4002 8.85679C16.8997 8.65699 17.4324 8.49053 17.8985 8.32406C17.9984 8.82352 18.0983 9.32292 18.1982 9.85571C17.8985 9.68925 17.5989 9.48945 17.2992 9.32298C16.9995 9.18979 16.6999 9.02332 16.4002 8.85679ZM20.5622 13.9845C20.9951 14.3507 21.3946 14.6837 21.7942 15.0167C21.428 15.3496 20.9951 15.7159 20.5622 16.0489C20.5622 15.6826 20.5955 15.3497 20.5955 15.0167C20.5955 14.6837 20.5955 14.3174 20.5622 13.9845ZM10.9729 5.49389C11.8386 3.29631 12.9707 1.99778 14.0028 1.99778C15.035 1.99778 16.1671 3.29637 17.0328 5.46062C17.166 5.76028 17.2659 6.09328 17.3991 6.42621C16.3003 6.75914 15.1682 7.192 14.0362 7.69146C12.9041 7.192 11.7387 6.75914 10.6399 6.42621C10.7398 6.09321 10.8397 5.79355 10.9729 5.49389ZM2.58221 8.52386C2.94847 7.85793 3.98066 7.525 5.37912 7.525C6.17824 7.525 7.1105 7.62487 8.14269 7.85793C7.90963 8.95672 7.70983 10.1221 7.57663 11.354C6.59754 12.0491 5.66337 12.8053 4.77972 13.6182C3.51447 12.2531 2.78194 10.9878 2.51555 9.98891C2.34914 9.38958 2.38247 8.89012 2.58221 8.52386ZM2.58221 21.5094C2.38241 21.1431 2.34914 20.6437 2.51561 20.0444C2.78201 19.0788 3.5478 17.8135 4.77979 16.4151C5.61218 17.1808 6.57777 17.9467 7.5767 18.6792C7.70989 19.9112 7.87636 21.0765 8.14276 22.1753C5.27925 22.7747 3.18154 22.5416 2.58221 21.5094ZM17.0328 24.5727C16.1671 26.7369 15.035 28.0355 14.0028 28.0355C12.9707 28.0355 11.8386 26.7369 10.9729 24.5394C10.8397 24.2397 10.7398 23.9067 10.6399 23.5738C11.7387 23.2409 12.8708 22.808 14.0362 22.3085C15.1682 22.808 16.3004 23.2409 17.3991 23.5738C17.2659 23.9401 17.166 24.2397 17.0328 24.5727ZM25.4235 21.5094C24.8241 22.5416 22.7265 22.808 19.8297 22.2086C20.0961 21.0765 20.2626 19.9112 20.3958 18.7125C21.428 17.98 22.3602 17.2142 23.226 16.4483C24.4912 17.8134 25.2237 19.0787 25.4901 20.0776C25.6565 20.6437 25.6233 21.1431 25.4235 21.5094Z" fill="#B5B5B5"/>
<path d="M14.0045 12.0195C12.3397 12.0195 11.0078 13.3514 11.0078 15.0162C11.0078 16.681 12.3397 18.0128 14.0045 18.0128C15.6692 18.0128 17.0011 16.681 17.0011 15.0162C17.0011 13.3514 15.6693 12.0195 14.0045 12.0195Z" fill="#D4E1F4"/>
</svg>
