<svg width="1061" height="213" viewBox="0 0 1061 213" fill="none" xmlns="http://www.w3.org/2000/svg">
<path d="M92.084 77.2401C96.7293 69.5184 106.755 67.0246 114.476 71.6699C122.198 76.3153 124.692 86.3407 120.047 94.0624L95.0698 135.579C90.4245 143.301 80.399 145.795 72.6774 141.15C64.9557 136.504 62.4619 126.479 67.1072 118.757L92.084 77.2401Z" fill="url(#paint0_linear_453_665)"/>
<rect width="32.3139" height="81.4872" rx="16.157" transform="matrix(-0.855486 0.517825 0.517825 0.855486 111.533 63.124)" fill="#141414"/>
<rect width="32.3139" height="32.3139" rx="16.157" transform="matrix(-0.855486 0.517825 0.517825 0.855486 162.393 63.124)" fill="#141414"/>
<rect width="32.3139" height="81.4872" rx="16.157" transform="matrix(-0.855486 0.517825 0.517825 0.855486 61.1348 63.124)" fill="#141414"/>
<path d="M139.871 110.162C145.973 120.358 154.32 118.807 157.063 116.432L145.623 135.299C140.722 123.725 133.77 99.9665 139.871 110.162Z" fill="#141414"/>
<path d="M183.424 32.91C166.077 14.7237 142.798 3.31393 117.81 0.615212C92.8209 -2.08331 67.6835 4.15169 46.8531 18.2152C26.0227 32.2787 10.845 53.2622 4.00945 77.4467C-2.8257 101.631 -0.876477 127.454 9.51116 150.339C19.8988 173.224 38.0542 191.692 60.7596 202.47C83.4649 213.248 109.253 215.641 133.554 209.223C157.855 202.805 179.098 187.991 193.519 167.407C207.94 146.824 214.587 122.01 212.318 96.9807C211.809 91.7359 207.601 87.6098 202.229 87.2336C196.23 86.8135 191.023 91.3859 190.603 97.3848C190.551 98.1186 190.622 98.8494 190.664 99.5412C192.236 119.149 186.962 138.777 175.665 154.902C164.2 171.268 147.309 183.046 127.987 188.149C108.666 193.252 88.1614 191.35 70.1086 182.78C52.0554 174.21 37.62 159.526 29.3608 141.331C21.1016 123.135 19.5517 102.603 24.9867 83.3741C30.4213 64.1451 42.4893 47.4611 59.0516 36.2792C75.6138 25.0973 95.6003 20.1399 115.469 22.2855C135.338 24.4312 153.914 33.4857 167.707 47.9456L167.707 47.9458C169.53 50.0294 172.148 51.4163 175.126 51.6248C181.114 52.0441 186.308 47.5233 186.728 41.5271C186.963 38.1776 185.666 35.0687 183.425 32.9103L183.424 32.91Z" fill="#141414"/>
<path d="M237.046 107.014C237.046 99.5572 238.563 93.0542 241.598 87.5051C244.633 81.8692 248.838 77.5339 254.214 74.4992C259.589 71.3778 265.745 69.8171 272.682 69.8171C281.613 69.8171 288.983 72.0715 294.792 76.5802C300.688 81.0022 304.633 87.245 306.627 95.3086H286.988C285.948 92.1872 284.17 89.7594 281.656 88.0253C279.228 86.2045 276.193 85.2941 272.552 85.2941C267.349 85.2941 263.231 87.2016 260.196 91.0167C257.162 94.745 255.644 100.077 255.644 107.014C255.644 113.864 257.162 119.196 260.196 123.011C263.231 126.739 267.349 128.604 272.552 128.604C279.922 128.604 284.734 125.309 286.988 118.719H306.627C304.633 126.523 300.688 132.722 294.792 137.317C288.896 141.913 281.526 144.211 272.682 144.211C265.745 144.211 259.589 142.693 254.214 139.659C248.838 136.537 244.633 132.202 241.598 126.653C238.563 121.017 237.046 114.471 237.046 107.014ZM351.961 144.211C345.024 144.211 338.781 142.693 333.232 139.659C327.683 136.537 323.304 132.158 320.096 126.523C316.975 120.887 315.414 114.384 315.414 107.014C315.414 99.6439 317.018 93.1409 320.226 87.5051C323.521 81.8692 327.987 77.5339 333.622 74.4992C339.258 71.3778 345.544 69.8171 352.481 69.8171C359.417 69.8171 365.703 71.3778 371.339 74.4992C376.975 77.5339 381.397 81.8692 384.605 87.5051C387.9 93.1409 389.548 99.6439 389.548 107.014C389.548 114.384 387.857 120.887 384.475 126.523C381.18 132.158 376.672 136.537 370.949 139.659C365.313 142.693 358.984 144.211 351.961 144.211ZM351.961 128.343C355.255 128.343 358.333 127.563 361.195 126.002C364.143 124.355 366.484 121.927 368.218 118.719C369.952 115.511 370.819 111.609 370.819 107.014C370.819 100.164 368.998 94.9184 365.357 91.2768C361.802 87.5484 357.423 85.6843 352.221 85.6843C347.018 85.6843 342.64 87.5484 339.085 91.2768C335.617 94.9184 333.882 100.164 333.882 107.014C333.882 113.864 335.573 119.153 338.955 122.881C342.423 126.523 346.758 128.343 351.961 128.343ZM398.222 106.754C398.222 99.4705 399.652 93.0109 402.514 87.375C405.462 81.7391 409.45 77.4039 414.479 74.3692C419.508 71.3345 425.101 69.8171 431.257 69.8171C435.939 69.8171 440.404 70.8576 444.653 72.9385C448.901 74.9328 452.283 77.6206 454.797 81.0022V46.7968H473.266V143.04H454.797V132.375C452.543 135.93 449.378 138.791 445.303 140.959C441.228 143.127 436.502 144.211 431.127 144.211C425.057 144.211 419.508 142.65 414.479 139.528C409.45 136.407 405.462 132.028 402.514 126.393C399.652 120.67 398.222 114.124 398.222 106.754ZM454.927 107.014C454.927 102.592 454.06 98.8202 452.326 95.6988C450.592 92.4906 448.251 90.0629 445.303 88.4155C442.355 86.6814 439.19 85.8143 435.809 85.8143C432.427 85.8143 429.306 86.638 426.444 88.2854C423.583 89.9328 421.242 92.3606 419.421 95.5687C417.687 98.6901 416.82 102.418 416.82 106.754C416.82 111.089 417.687 114.904 419.421 118.199C421.242 121.407 423.583 123.878 426.444 125.612C429.392 127.346 432.514 128.213 435.809 128.213C439.19 128.213 442.355 127.39 445.303 125.742C448.251 124.008 450.592 121.58 452.326 118.459C454.06 115.251 454.927 111.436 454.927 107.014ZM558.029 105.453C558.029 108.054 557.856 110.395 557.509 112.476H504.835C505.269 117.679 507.09 121.754 510.298 124.702C513.506 127.65 517.451 129.124 522.133 129.124C528.896 129.124 533.708 126.219 536.569 120.41H556.208C554.127 127.346 550.139 133.069 544.243 137.578C538.347 142 531.107 144.211 522.523 144.211C515.587 144.211 509.344 142.693 503.795 139.659C498.332 136.537 494.04 132.158 490.919 126.523C487.884 120.887 486.367 114.384 486.367 107.014C486.367 99.5572 487.884 93.0109 490.919 87.375C493.954 81.7391 498.202 77.4039 503.665 74.3692C509.127 71.3345 515.413 69.8171 522.523 69.8171C529.373 69.8171 535.486 71.2911 540.861 74.2391C546.324 77.1871 550.529 81.3923 553.477 86.8548C556.512 92.2305 558.029 98.43 558.029 105.453ZM539.171 100.251C539.084 95.5687 537.393 91.8404 534.098 89.0658C530.804 86.2045 526.772 84.7738 522.003 84.7738C517.494 84.7738 513.679 86.1611 510.558 88.9357C507.523 91.6236 505.659 95.3953 504.965 100.251H539.171Z" fill="#141414"/>
<path d="M679.292 69.448L656.143 143.635H643.417L625.548 84.7457L607.678 143.635H594.952L571.667 69.448H584.258L601.315 131.722L619.726 69.448H632.316L650.322 131.857L667.108 69.448H679.292ZM697.881 57.3995C695.535 57.3995 693.549 56.5872 691.925 54.9627C690.3 53.3382 689.488 51.3526 689.488 49.0061C689.488 46.6596 690.3 44.674 691.925 43.0495C693.549 41.425 695.535 40.6127 697.881 40.6127C700.138 40.6127 702.033 41.425 703.567 43.0495C705.192 44.674 706.004 46.6596 706.004 49.0061C706.004 51.3526 705.192 53.3382 703.567 54.9627C702.033 56.5872 700.138 57.3995 697.881 57.3995ZM703.838 69.448V143.635H691.519V69.448H703.838ZM760.98 68.0943C770.005 68.0943 777.315 70.8469 782.911 76.3523C788.507 81.7674 791.304 89.6193 791.304 99.9079V143.635H779.12V101.668C779.12 94.2672 777.27 88.6265 773.57 84.7457C769.87 80.7746 764.816 78.7891 758.408 78.7891C751.91 78.7891 746.72 80.8197 742.839 84.8811C739.049 88.9424 737.153 94.8538 737.153 102.615V143.635H724.834V69.448H737.153V80.0075C739.59 76.2169 742.884 73.2837 747.036 71.208C751.278 69.1322 755.926 68.0943 760.98 68.0943ZM842.023 68.2297C848.431 68.2297 854.027 69.6286 858.81 72.4263C863.684 75.2241 867.294 78.744 869.64 82.9858V69.448H882.095V145.259C882.095 152.028 880.651 158.03 877.763 163.264C874.875 168.589 870.723 172.741 865.308 175.719C859.983 178.697 853.756 180.187 846.626 180.187C836.879 180.187 828.756 177.885 822.258 173.282C815.76 168.68 811.924 162.407 810.751 154.465H822.935C824.289 158.978 827.087 162.588 831.328 165.295C835.57 168.093 840.669 169.492 846.626 169.492C853.395 169.492 858.9 167.371 863.142 163.129C867.474 158.887 869.64 152.931 869.64 145.259V129.691C867.203 134.023 863.593 137.633 858.81 140.521C854.027 143.409 848.431 144.853 842.023 144.853C835.435 144.853 829.433 143.229 824.018 139.98C818.693 136.731 814.496 132.173 811.428 126.306C808.359 120.44 806.825 113.762 806.825 106.271C806.825 98.6895 808.359 92.056 811.428 86.3702C814.496 80.5941 818.693 76.1267 824.018 72.9679C829.433 69.8091 835.435 68.2297 842.023 68.2297ZM869.64 106.406C869.64 100.81 868.512 95.9369 866.256 91.7853C863.999 87.6337 860.931 84.4749 857.05 82.3089C853.259 80.0526 849.063 78.9245 844.46 78.9245C839.857 78.9245 835.66 80.0075 831.87 82.1735C828.079 84.3395 825.056 87.4983 822.8 91.6499C820.543 95.8015 819.415 100.675 819.415 106.271C819.415 111.956 820.543 116.92 822.8 121.162C825.056 125.314 828.079 128.518 831.87 130.774C835.66 132.94 839.857 134.023 844.46 134.023C849.063 134.023 853.259 132.94 857.05 130.774C860.931 128.518 863.999 125.314 866.256 121.162C868.512 116.92 869.64 112.002 869.64 106.406ZM915.233 43.4556V143.635H902.913V43.4556H915.233ZM1003.92 103.698C1003.92 106.045 1003.78 108.527 1003.51 111.144H944.216C944.667 118.455 947.149 124.186 951.662 128.337C956.265 132.398 961.815 134.429 968.313 134.429C973.638 134.429 978.06 133.211 981.58 130.774C985.19 128.247 987.717 124.908 989.161 120.756H1002.43C1000.44 127.886 996.472 133.707 990.515 138.22C984.558 142.642 977.158 144.853 968.313 144.853C961.274 144.853 954.956 143.274 949.36 140.115C943.855 136.956 939.523 132.489 936.364 126.713C933.205 120.846 931.626 114.077 931.626 106.406C931.626 98.7347 933.16 92.0109 936.229 86.2348C939.297 80.4587 943.584 76.0364 949.09 72.9679C954.685 69.8091 961.093 68.2297 968.313 68.2297C975.353 68.2297 981.58 69.7639 986.995 72.8325C992.41 75.901 996.562 80.1429 999.45 85.5579C1002.43 90.8828 1003.92 96.9296 1003.92 103.698ZM991.192 101.126C991.192 96.4332 990.154 92.417 988.078 89.0777C986.002 85.6482 983.16 83.076 979.55 81.3612C976.03 79.5562 972.104 78.6537 967.772 78.6537C961.544 78.6537 956.219 80.6392 951.797 84.6103C947.465 88.5814 944.983 94.0867 944.351 101.126H991.192ZM1035.21 79.6013V123.328C1035.21 126.938 1035.97 129.51 1037.51 131.045C1039.04 132.489 1041.7 133.211 1045.49 133.211H1054.56V143.635H1043.46C1036.6 143.635 1031.46 142.055 1028.03 138.897C1024.6 135.738 1022.89 130.548 1022.89 123.328V79.6013H1013.27V69.448H1022.89V50.766H1035.21V69.448H1054.56V79.6013H1035.21Z" fill="#141414"/>
<defs>
<linearGradient id="paint0_linear_453_665" x1="114.476" y1="71.6699" x2="72.6774" y2="141.15" gradientUnits="userSpaceOnUse">
<stop stop-color="white"/>
<stop offset="1" stop-opacity="0.5"/>
</linearGradient>
</defs>
</svg>
