<svg width="157" height="32" viewBox="0 0 157 32" fill="none" xmlns="http://www.w3.org/2000/svg">
<path fill-rule="evenodd" clip-rule="evenodd" d="M32 0H0V32H32V0ZM26.678 24.6369C26.734 24.7814 26.7619 24.9445 26.7619 25.1262C26.7619 25.3546 26.7037 25.5596 26.5872 25.7414C26.4753 25.9231 26.3006 26.0652 26.0629 26.1678C25.8299 26.2703 25.5317 26.3215 25.1682 26.3215C24.8699 26.3215 24.595 26.2913 24.3433 26.2307C24.0964 26.1701 23.882 26.0722 23.7002 25.9371C23.5232 25.8019 23.3857 25.6249 23.2878 25.4058C23.19 25.1868 23.141 24.9189 23.141 24.602H21.037C21.037 25.1752 21.1558 25.6715 21.3935 26.0909C21.6312 26.5103 21.9481 26.8551 22.3442 27.1254C22.7449 27.3957 23.19 27.5984 23.6793 27.7336C24.1686 27.864 24.6649 27.9293 25.1682 27.9293C25.7274 27.9293 26.233 27.8664 26.685 27.7405C27.1371 27.6147 27.5262 27.4306 27.8524 27.1883C28.1786 26.946 28.4279 26.6501 28.6003 26.3006C28.7728 25.9511 28.859 25.555 28.859 25.1123C28.859 24.6928 28.7867 24.3177 28.6423 23.9868C28.4978 23.656 28.2834 23.3601 27.9992 23.0991C27.7149 22.8381 27.3607 22.6028 26.9367 22.3931C26.5173 22.1834 26.0303 21.9947 25.4757 21.8269C25.1449 21.7244 24.8536 21.6195 24.602 21.5123C24.3503 21.4052 24.1383 21.291 23.9659 21.1698C23.7934 21.0487 23.663 20.9182 23.5744 20.7784C23.4905 20.6386 23.4486 20.4825 23.4486 20.31C23.4486 20.0817 23.5092 19.8766 23.6303 19.6949C23.7515 19.5085 23.9333 19.3617 24.1756 19.2545C24.4179 19.1427 24.7208 19.0868 25.0843 19.0868C25.4618 19.0868 25.774 19.152 26.021 19.2825C26.2726 19.413 26.459 19.5924 26.5802 19.8207C26.706 20.0444 26.7689 20.3054 26.7689 20.6036H28.852C28.852 19.9978 28.6959 19.4596 28.3836 18.9889C28.0761 18.5182 27.6427 18.1478 27.0835 17.8775C26.5243 17.6072 25.8695 17.472 25.1192 17.472C24.5694 17.472 24.0637 17.5396 23.6024 17.6748C23.1457 17.8099 22.7496 18.0033 22.4141 18.2549C22.0785 18.5019 21.8176 18.8002 21.6312 19.1497C21.4448 19.4945 21.3516 19.879 21.3516 20.303C21.3516 20.7411 21.4401 21.1255 21.6172 21.4564C21.7989 21.7873 22.0459 22.0785 22.3581 22.3302C22.675 22.5772 23.0385 22.7939 23.4486 22.9803C23.8633 23.1667 24.3014 23.3344 24.7627 23.4836C25.1775 23.614 25.5154 23.7399 25.7763 23.861C26.0373 23.9822 26.24 24.1057 26.3845 24.2315C26.5289 24.3527 26.6268 24.4878 26.678 24.6369ZM17.2484 27.7895V19.2545H20.3799V17.6118H17.2484H15.1583H12.0757V19.2545H15.1583V27.7895H17.2484Z" fill="white"/>
<path d="M49.1523 6.9375V24H45.6484V6.9375H49.1523ZM54.4023 6.9375V9.69141H40.4805V6.9375H54.4023ZM59.043 22.5703L62.4062 11.3203H66.0273L60.9297 25.9102C60.8203 26.2305 60.6719 26.5742 60.4844 26.9414C60.3047 27.3086 60.0586 27.6562 59.7461 27.9844C59.4414 28.3203 59.0547 28.5938 58.5859 28.8047C58.125 29.0156 57.5586 29.1211 56.8867 29.1211C56.5664 29.1211 56.3047 29.1016 56.1016 29.0625C55.8984 29.0234 55.6562 28.9688 55.375 28.8984V26.4258C55.4609 26.4258 55.5508 26.4258 55.6445 26.4258C55.7383 26.4336 55.8281 26.4375 55.9141 26.4375C56.3594 26.4375 56.7227 26.3867 57.0039 26.2852C57.2852 26.1836 57.5117 26.0273 57.6836 25.8164C57.8555 25.6133 57.9922 25.3477 58.0938 25.0195L59.043 22.5703ZM57.6367 11.3203L60.3906 20.5078L60.8711 24.082L58.5742 24.3281L54.0156 11.3203H57.6367ZM70.75 13.7578V28.875H67.375V11.3203H70.5039L70.75 13.7578ZM78.7773 17.5195V17.7656C78.7773 18.6875 78.668 19.543 78.4492 20.332C78.2383 21.1211 77.9258 21.8086 77.5117 22.3945C77.0977 22.9727 76.582 23.4258 75.9648 23.7539C75.3555 24.0742 74.6523 24.2344 73.8555 24.2344C73.082 24.2344 72.4102 24.0781 71.8398 23.7656C71.2695 23.4531 70.7891 23.0156 70.3984 22.4531C70.0156 21.8828 69.707 21.2227 69.4727 20.4727C69.2383 19.7227 69.0586 18.918 68.9336 18.0586V17.4141C69.0586 16.4922 69.2383 15.6484 69.4727 14.8828C69.707 14.1094 70.0156 13.4414 70.3984 12.8789C70.7891 12.3086 71.2656 11.8672 71.8281 11.5547C72.3984 11.2422 73.0664 11.0859 73.832 11.0859C74.6367 11.0859 75.3438 11.2383 75.9531 11.543C76.5703 11.8477 77.0859 12.2852 77.5 12.8555C77.9219 13.4258 78.2383 14.1055 78.4492 14.8945C78.668 15.6836 78.7773 16.5586 78.7773 17.5195ZM75.3906 17.7656V17.5195C75.3906 16.9805 75.3438 16.4844 75.25 16.0312C75.1641 15.5703 75.0234 15.168 74.8281 14.8242C74.6406 14.4805 74.3906 14.2148 74.0781 14.0273C73.7734 13.832 73.4023 13.7344 72.9648 13.7344C72.5039 13.7344 72.1094 13.8086 71.7812 13.957C71.4609 14.1055 71.1992 14.3203 70.9961 14.6016C70.793 14.8828 70.6406 15.2188 70.5391 15.6094C70.4375 16 70.375 16.4414 70.3516 16.9336V18.5625C70.3906 19.1406 70.5 19.6602 70.6797 20.1211C70.8594 20.5742 71.1367 20.9336 71.5117 21.1992C71.8867 21.4648 72.3789 21.5977 72.9883 21.5977C73.4336 21.5977 73.8086 21.5 74.1133 21.3047C74.418 21.1016 74.6641 20.8242 74.8516 20.4727C75.0469 20.1211 75.1836 19.7148 75.2617 19.2539C75.3477 18.793 75.3906 18.2969 75.3906 17.7656ZM86.7109 24.2344C85.7266 24.2344 84.8438 24.0781 84.0625 23.7656C83.2812 23.4453 82.6172 23.0039 82.0703 22.4414C81.5312 21.8789 81.1172 21.2266 80.8281 20.4844C80.5391 19.7344 80.3945 18.9375 80.3945 18.0938V17.625C80.3945 16.6641 80.5312 15.7852 80.8047 14.9883C81.0781 14.1914 81.4688 13.5 81.9766 12.9141C82.4922 12.3281 83.1172 11.8789 83.8516 11.5664C84.5859 11.2461 85.4141 11.0859 86.3359 11.0859C87.2344 11.0859 88.0312 11.2344 88.7266 11.5312C89.4219 11.8281 90.0039 12.25 90.4727 12.7969C90.9492 13.3438 91.3086 14 91.5508 14.7656C91.793 15.5234 91.9141 16.3672 91.9141 17.2969V18.7031H81.8359V16.4531H88.5977V16.1953C88.5977 15.7266 88.5117 15.3086 88.3398 14.9414C88.1758 14.5664 87.9258 14.2695 87.5898 14.0508C87.2539 13.832 86.8242 13.7227 86.3008 13.7227C85.8555 13.7227 85.4727 13.8203 85.1523 14.0156C84.832 14.2109 84.5703 14.4844 84.3672 14.8359C84.1719 15.1875 84.0234 15.6016 83.9219 16.0781C83.8281 16.5469 83.7812 17.0625 83.7812 17.625V18.0938C83.7812 18.6016 83.8516 19.0703 83.9922 19.5C84.1406 19.9297 84.3477 20.3008 84.6133 20.6133C84.8867 20.9258 85.2148 21.168 85.5977 21.3398C85.9883 21.5117 86.4297 21.5977 86.9219 21.5977C87.5312 21.5977 88.0977 21.4805 88.6211 21.2461C89.1523 21.0039 89.6094 20.6406 89.9922 20.1562L91.6328 21.9375C91.3672 22.3203 91.0039 22.6875 90.543 23.0391C90.0898 23.3906 89.543 23.6797 88.9023 23.9062C88.2617 24.125 87.5312 24.2344 86.7109 24.2344ZM102.93 19.5352C102.93 19.2305 102.883 18.957 102.789 18.7148C102.703 18.4648 102.539 18.2383 102.297 18.0352C102.055 17.8242 101.715 17.6172 101.277 17.4141C100.84 17.2109 100.273 17 99.5781 16.7812C98.8047 16.5312 98.0703 16.25 97.375 15.9375C96.6875 15.625 96.0781 15.2617 95.5469 14.8477C95.0234 14.4258 94.6094 13.9375 94.3047 13.3828C94.0078 12.8281 93.8594 12.1836 93.8594 11.4492C93.8594 10.7383 94.0156 10.0938 94.3281 9.51562C94.6406 8.92969 95.0781 8.42969 95.6406 8.01562C96.2031 7.59375 96.8672 7.26953 97.6328 7.04297C98.4062 6.81641 99.2539 6.70312 100.176 6.70312C101.434 6.70312 102.531 6.92969 103.469 7.38281C104.406 7.83594 105.133 8.45703 105.648 9.24609C106.172 10.0352 106.434 10.9375 106.434 11.9531H102.941C102.941 11.4531 102.836 11.0156 102.625 10.6406C102.422 10.2578 102.109 9.95703 101.688 9.73828C101.273 9.51953 100.75 9.41016 100.117 9.41016C99.5078 9.41016 99 9.50391 98.5938 9.69141C98.1875 9.87109 97.8828 10.1172 97.6797 10.4297C97.4766 10.7344 97.375 11.0781 97.375 11.4609C97.375 11.75 97.4453 12.0117 97.5859 12.2461C97.7344 12.4805 97.9531 12.6992 98.2422 12.9023C98.5312 13.1055 98.8867 13.2969 99.3086 13.4766C99.7305 13.6562 100.219 13.832 100.773 14.0039C101.703 14.2852 102.52 14.6016 103.223 14.9531C103.934 15.3047 104.527 15.6992 105.004 16.1367C105.48 16.5742 105.84 17.0703 106.082 17.625C106.324 18.1797 106.445 18.8086 106.445 19.5117C106.445 20.2539 106.301 20.918 106.012 21.5039C105.723 22.0898 105.305 22.5859 104.758 22.9922C104.211 23.3984 103.559 23.707 102.801 23.918C102.043 24.1289 101.195 24.2344 100.258 24.2344C99.4141 24.2344 98.582 24.125 97.7617 23.9062C96.9414 23.6797 96.1953 23.3398 95.5234 22.8867C94.8594 22.4336 94.3281 21.8555 93.9297 21.1523C93.5312 20.4492 93.332 19.6172 93.332 18.6562H96.8594C96.8594 19.1875 96.9414 19.6367 97.1055 20.0039C97.2695 20.3711 97.5 20.668 97.7969 20.8945C98.1016 21.1211 98.4609 21.2852 98.875 21.3867C99.2969 21.4883 99.7578 21.5391 100.258 21.5391C100.867 21.5391 101.367 21.4531 101.758 21.2812C102.156 21.1094 102.449 20.8711 102.637 20.5664C102.832 20.2617 102.93 19.918 102.93 19.5352ZM113.863 21.5977C114.277 21.5977 114.645 21.5195 114.965 21.3633C115.285 21.1992 115.535 20.9727 115.715 20.6836C115.902 20.3867 116 20.0391 116.008 19.6406H119.184C119.176 20.5312 118.938 21.3242 118.469 22.0195C118 22.707 117.371 23.25 116.582 23.6484C115.793 24.0391 114.91 24.2344 113.934 24.2344C112.949 24.2344 112.09 24.0703 111.355 23.7422C110.629 23.4141 110.023 22.9609 109.539 22.3828C109.055 21.7969 108.691 21.1172 108.449 20.3438C108.207 19.5625 108.086 18.7266 108.086 17.8359V17.4961C108.086 16.5977 108.207 15.7617 108.449 14.9883C108.691 14.207 109.055 13.5273 109.539 12.9492C110.023 12.3633 110.629 11.9062 111.355 11.5781C112.082 11.25 112.934 11.0859 113.91 11.0859C114.949 11.0859 115.859 11.2852 116.641 11.6836C117.43 12.082 118.047 12.6523 118.492 13.3945C118.945 14.1289 119.176 15 119.184 16.0078H116.008C116 15.5859 115.91 15.2031 115.738 14.8594C115.574 14.5156 115.332 14.2422 115.012 14.0391C114.699 13.8281 114.312 13.7227 113.852 13.7227C113.359 13.7227 112.957 13.8281 112.645 14.0391C112.332 14.2422 112.09 14.5234 111.918 14.8828C111.746 15.2344 111.625 15.6367 111.555 16.0898C111.492 16.5352 111.461 17.0039 111.461 17.4961V17.8359C111.461 18.3281 111.492 18.8008 111.555 19.2539C111.617 19.707 111.734 20.1094 111.906 20.4609C112.086 20.8125 112.332 21.0898 112.645 21.293C112.957 21.4961 113.363 21.5977 113.863 21.5977ZM124.516 14.0859V24H121.141V11.3203H124.316L124.516 14.0859ZM128.336 11.2383L128.277 14.3672C128.113 14.3438 127.914 14.3242 127.68 14.3086C127.453 14.2852 127.246 14.2734 127.059 14.2734C126.582 14.2734 126.168 14.3359 125.816 14.4609C125.473 14.5781 125.184 14.7539 124.949 14.9883C124.723 15.2227 124.551 15.5078 124.434 15.8438C124.324 16.1797 124.262 16.5625 124.246 16.9922L123.566 16.7812C123.566 15.9609 123.648 15.207 123.812 14.5195C123.977 13.8242 124.215 13.2188 124.527 12.7031C124.848 12.1875 125.238 11.7891 125.699 11.5078C126.16 11.2266 126.688 11.0859 127.281 11.0859C127.469 11.0859 127.66 11.1016 127.855 11.1328C128.051 11.1562 128.211 11.1914 128.336 11.2383ZM133.492 11.3203V24H130.105V11.3203H133.492ZM129.895 8.01562C129.895 7.52344 130.066 7.11719 130.41 6.79688C130.754 6.47656 131.215 6.31641 131.793 6.31641C132.363 6.31641 132.82 6.47656 133.164 6.79688C133.516 7.11719 133.691 7.52344 133.691 8.01562C133.691 8.50781 133.516 8.91406 133.164 9.23438C132.82 9.55469 132.363 9.71484 131.793 9.71484C131.215 9.71484 130.754 9.55469 130.41 9.23438C130.066 8.91406 129.895 8.50781 129.895 8.01562ZM139.656 13.7578V28.875H136.281V11.3203H139.41L139.656 13.7578ZM147.684 17.5195V17.7656C147.684 18.6875 147.574 19.543 147.355 20.332C147.145 21.1211 146.832 21.8086 146.418 22.3945C146.004 22.9727 145.488 23.4258 144.871 23.7539C144.262 24.0742 143.559 24.2344 142.762 24.2344C141.988 24.2344 141.316 24.0781 140.746 23.7656C140.176 23.4531 139.695 23.0156 139.305 22.4531C138.922 21.8828 138.613 21.2227 138.379 20.4727C138.145 19.7227 137.965 18.918 137.84 18.0586V17.4141C137.965 16.4922 138.145 15.6484 138.379 14.8828C138.613 14.1094 138.922 13.4414 139.305 12.8789C139.695 12.3086 140.172 11.8672 140.734 11.5547C141.305 11.2422 141.973 11.0859 142.738 11.0859C143.543 11.0859 144.25 11.2383 144.859 11.543C145.477 11.8477 145.992 12.2852 146.406 12.8555C146.828 13.4258 147.145 14.1055 147.355 14.8945C147.574 15.6836 147.684 16.5586 147.684 17.5195ZM144.297 17.7656V17.5195C144.297 16.9805 144.25 16.4844 144.156 16.0312C144.07 15.5703 143.93 15.168 143.734 14.8242C143.547 14.4805 143.297 14.2148 142.984 14.0273C142.68 13.832 142.309 13.7344 141.871 13.7344C141.41 13.7344 141.016 13.8086 140.688 13.957C140.367 14.1055 140.105 14.3203 139.902 14.6016C139.699 14.8828 139.547 15.2188 139.445 15.6094C139.344 16 139.281 16.4414 139.258 16.9336V18.5625C139.297 19.1406 139.406 19.6602 139.586 20.1211C139.766 20.5742 140.043 20.9336 140.418 21.1992C140.793 21.4648 141.285 21.5977 141.895 21.5977C142.34 21.5977 142.715 21.5 143.02 21.3047C143.324 21.1016 143.57 20.8242 143.758 20.4727C143.953 20.1211 144.09 19.7148 144.168 19.2539C144.254 18.793 144.297 18.2969 144.297 17.7656ZM155.992 11.3203V13.7109H148.609V11.3203H155.992ZM150.438 8.19141H153.812V20.1797C153.812 20.5469 153.859 20.8281 153.953 21.0234C154.055 21.2188 154.203 21.3555 154.398 21.4336C154.594 21.5039 154.84 21.5391 155.137 21.5391C155.348 21.5391 155.535 21.5312 155.699 21.5156C155.871 21.4922 156.016 21.4688 156.133 21.4453L156.145 23.9297C155.855 24.0234 155.543 24.0977 155.207 24.1523C154.871 24.207 154.5 24.2344 154.094 24.2344C153.352 24.2344 152.703 24.1133 152.148 23.8711C151.602 23.6211 151.18 23.2227 150.883 22.6758C150.586 22.1289 150.438 21.4102 150.438 20.5195V8.19141Z" fill="white"/>
</svg>
